<svg width="18" height="18" viewBox="0 0 18 18" fill="none" xmlns="http://www.w3.org/2000/svg">
<path d="M17.3337 12.4915C17.3337 15.5248 15.5253 17.3332 12.492 17.3332H11.5003C11.042 17.3332 10.667 16.9582 10.667 16.4998V11.6915C10.667 11.4665 10.8503 11.2748 11.0753 11.2748L12.542 11.2498C12.6587 11.2415 12.7587 11.1582 12.7837 11.0415L13.0753 9.44984C13.1003 9.29984 12.9837 9.15817 12.8253 9.15817L11.0503 9.18317C10.817 9.18317 10.6337 8.99985 10.6253 8.77485L10.592 6.73317C10.592 6.59984 10.7003 6.48318 10.842 6.48318L12.842 6.44984C12.9836 6.44984 13.092 6.34152 13.092 6.19985L13.0587 4.19983C13.0587 4.05816 12.9503 3.94984 12.8087 3.94984L10.5587 3.98318C9.17532 4.00818 8.07534 5.1415 8.10034 6.52484L8.14199 8.8165C8.15033 9.04984 7.967 9.23318 7.73367 9.24151L6.73366 9.25817C6.59199 9.25817 6.48367 9.36649 6.48367 9.50816L6.50867 11.0915C6.50867 11.2332 6.61699 11.3415 6.75866 11.3415L7.75867 11.3248C7.992 11.3248 8.17532 11.5082 8.18365 11.7332L8.25865 16.4832C8.26698 16.9498 7.89198 17.3332 7.42531 17.3332H5.50866C2.47532 17.3332 0.666992 15.5248 0.666992 12.4832V5.50817C0.666992 2.47484 2.47532 0.666504 5.50866 0.666504H12.492C15.5253 0.666504 17.3337 2.47484 17.3337 5.50817V12.4915V12.4915Z" fill="black"/>
</svg>
