<svg width="18" height="18" viewBox="0 0 18 18" fill="none" xmlns="http://www.w3.org/2000/svg">
<path d="M12.492 0.666504H5.50866C2.47533 0.666504 0.666992 2.47484 0.666992 5.50817V12.4832C0.666992 15.5248 2.47533 17.3332 5.50866 17.3332H12.4837C15.517 17.3332 17.3253 15.5248 17.3253 12.4915V5.50817C17.3337 2.47484 15.5253 0.666504 12.492 0.666504ZM9.00033 12.2332C7.21699 12.2332 5.76699 10.7832 5.76699 8.99984C5.76699 7.2165 7.21699 5.7665 9.00033 5.7665C10.7837 5.7665 12.2337 7.2165 12.2337 8.99984C12.2337 10.7832 10.7837 12.2332 9.00033 12.2332ZM13.9337 4.73317C13.892 4.83317 13.8337 4.92484 13.7587 5.00817C13.6753 5.08317 13.5837 5.1415 13.4837 5.18317C13.3837 5.22484 13.2753 5.24984 13.167 5.24984C12.942 5.24984 12.7337 5.1665 12.5753 5.00817C12.5003 4.92484 12.442 4.83317 12.4003 4.73317C12.3587 4.63317 12.3337 4.52484 12.3337 4.4165C12.3337 4.30817 12.3587 4.19984 12.4003 4.09984C12.442 3.9915 12.5003 3.90817 12.5753 3.82484C12.767 3.63317 13.0587 3.5415 13.3253 3.59984C13.3837 3.60817 13.4337 3.62484 13.4837 3.64984C13.5337 3.6665 13.5837 3.6915 13.6337 3.72484C13.6753 3.74984 13.717 3.7915 13.7587 3.82484C13.8337 3.90817 13.892 3.9915 13.9337 4.09984C13.9753 4.19984 14.0003 4.30817 14.0003 4.4165C14.0003 4.52484 13.9753 4.63317 13.9337 4.73317Z" fill="#292D32"/>
</svg>
