<svg width="20" height="16" viewBox="0 0 20 16" fill="none" xmlns="http://www.w3.org/2000/svg">
<path d="M6.51589 15.5083C13.5917 15.5083 17.4612 9.64615 17.4612 4.56295C17.4612 4.39646 17.4578 4.23065 17.4503 4.06576C18.2014 3.52271 18.8541 2.84504 19.3692 2.07369C18.68 2.38019 17.9381 2.58625 17.1601 2.67947C17.9543 2.20304 18.564 1.44969 18.8516 0.551636C18.1084 0.992292 17.2852 1.31244 16.4089 1.48535C15.7069 0.737622 14.7074 0.27002 13.6008 0.27002C11.4765 0.27002 9.75367 1.99274 9.75367 4.11633C9.75367 4.41836 9.7875 4.7119 9.85343 4.99352C6.65624 4.83264 3.82104 3.30198 1.92391 0.97429C1.59368 1.54268 1.4031 2.20315 1.4031 2.90788C1.4031 4.24235 2.08226 5.42076 3.11493 6.10989C2.48382 6.09051 1.891 5.91725 1.37272 5.62887C1.37214 5.64504 1.37214 5.66075 1.37214 5.67795C1.37214 7.54102 2.69813 9.09656 4.45857 9.44904C4.13522 9.53699 3.79501 9.58434 3.44413 9.58434C3.19669 9.58434 2.95543 9.56004 2.72106 9.51497C3.21079 11.0435 4.63103 12.1557 6.31476 12.1869C4.99807 13.2189 3.33945 13.8336 1.5368 13.8336C1.22675 13.8336 0.92025 13.8158 0.619141 13.7803C2.32168 14.8715 4.34333 15.5084 6.516 15.5084" fill="black"/>
</svg>
